<svg width="256" height="256" fill="none" xmlns="http://www.w3.org/2000/svg"><path fill-rule="evenodd" clip-rule="evenodd" d="m20.213 78.918.994 65.194 105.506 67.185 107.496-67.683-.498-62.208L126.215 7.254 20.213 78.918Z" fill="#535456" stroke="#2B2A29" stroke-width=".64" stroke-miterlimit="2.613"/><path fill-rule="evenodd" clip-rule="evenodd" d="m21.049 182.065 106.002 69.673 107.496-69.673v-27.87l-107.496 67.683-105.505-67.185-.497 27.372Z" fill="#FF6207" stroke="#2B2A29" stroke-width=".64" stroke-miterlimit="2.613"/><path d="M92.888 138.587c-5.922 3.409-13.29 5.113-22.1 5.113-9.75 0-17.45-2.702-23.083-8.104-5.619-5.403-8.435-12.841-8.435-22.317 0-9.533 3.077-17.304 9.23-23.313 6.14-6.024 14.33-9.028 24.542-9.028 6.428 0 12.104.895 17 2.671v12.827c-4.68-2.716-10.4-4.059-17.174-4.059-5.677 0-10.285 1.835-13.853 5.518-3.582 3.684-5.359 8.594-5.359 14.748 0 6.225 1.604 11.049 4.796 14.473 3.207 3.409 7.525 5.113 12.971 5.113 3.278 0 5.88-.462 7.786-1.387v-11.859H67.075v-10.92h25.813v30.524Zm55.308 1.906c-4.42 2.138-10.212 3.207-17.347 3.207-9.302 0-16.626-2.731-21.955-8.205-5.345-5.474-8.003-12.769-8.003-21.883 0-9.706 2.991-17.578 8.985-23.616 5.994-6.037 13.78-9.056 23.342-9.056 5.922 0 10.92.75 14.979 2.253V96.35c-4.059-2.427-8.681-3.639-13.881-3.639-5.69 0-10.298 1.791-13.794 5.373-3.495 3.582-5.243 8.436-5.243 14.56 0 5.865 1.646 10.545 4.954 14.026 3.293 3.481 7.743 5.229 13.333 5.229 5.33 0 10.211-1.3 14.632-3.9v12.494l-.002-.001Zm35.173 3.207c-8.696 0-15.774-2.831-21.248-8.479-5.475-5.662-8.204-13.029-8.204-22.115 0-9.591 2.773-17.348 8.335-23.27 5.561-5.922 12.913-8.898 22.085-8.898 8.667 0 15.672 2.845 21.017 8.507 5.344 5.677 8.017 13.159 8.017 22.432 0 9.534-2.774 17.232-8.321 23.068-5.532 5.836-12.769 8.754-21.681 8.754v.001Zm.592-50.989c-4.795 0-8.609 1.791-11.426 5.402-2.817 3.596-4.233 8.349-4.233 14.271 0 6.009 1.415 10.761 4.233 14.272 2.817 3.495 6.515 5.243 11.079 5.243 4.724 0 8.45-1.705 11.224-5.098 2.759-3.409 4.145-8.118 4.145-14.156 0-6.297-1.343-11.194-4.016-14.69-2.687-3.495-6.355-5.243-11.006-5.243Z" fill="#D9DADA"/></svg>